# xmcd
#
# Track frame offsets:
#	150
#	11177
#	22706
#	34287
#	47196
#	59841
#	73140
#	82928
#	96520
#	109339
#	121222
#	132022
#	148856
#	162040
#	174242
# Disc length: 2487 seconds
# Revision: 1
# Processed by: cddbd v1.5.2PL0 Copyright (c) Steve Scherf et al.
#
# Submitted via: libkcddb 0.31
#
DISCID=d009b50f
DTITLE=Rubén Olveira - ¿ Teacordás , hermano..?
DYEAR=2006
DGENRE=Tango
TTITLE0=Pista 01
TTITLE1=Pista 02
TTITLE2=Pista 03
TTITLE3=Pista 04
TTITLE4=Pista 05
TTITLE5=Pista 06
TTITLE6=Pista 07
TTITLE7=Pista 08
TTITLE8=Pista 09
TTITLE9=Pista 10
TTITLE10=Pista 11
TTITLE11=Pista 12
TTITLE12=Pista 13
TTITLE13=Pista 14
TTITLE14=Pista 15
EXTD=PLASTICS estudis Calabria 95 -Barcelona- España
EXTT0=
EXTT1=
EXTT2=
EXTT3=
EXTT4=
EXTT5=
EXTT6=
EXTT7=
EXTT8=
EXTT9=
EXTT10=
EXTT11=
EXTT12=
EXTT13=
EXTT14=
PLAYORDER=
